# This file uses centimeters as units for non-parametric coordinates.

mtllib wheat_field_1.mtl
g default
v -0.955441 0.108071 3.955677
v 0.955441 0.108070 3.955677
v -0.930823 0.995591 3.955677
v 1.004792 1.144526 3.881306
v -1.081699 1.108071 -3.918727
v 0.997912 1.041511 -4.010166
v -0.955441 0.108071 -4.010166
v 0.955441 0.108070 -4.010166
v -1.099606 1.316954 -0.027244
v 1.028232 1.204756 0.133120
v -1.080391 1.162611 2.500923
v 0.955441 1.162611 2.312324
v -1.069923 1.138379 -2.196461
v 1.080527 1.232524 -2.536888
v -0.955441 1.252827 1.284789
v 1.109138 1.331150 1.222722
v -1.069923 1.236950 -1.461079
v 1.153114 1.323450 -1.401934
v 0.955441 0.108070 -0.027244
v 1.028028 1.264103 -0.634407
v 1.181930 1.267953 0.677921
v 0.955441 0.108070 1.964216
v 0.955441 0.108070 -2.018705
v 0.976677 1.137017 -3.273527
v -0.955441 0.108071 -0.027244
v -1.099606 1.284890 0.628772
v -0.955441 0.108071 -2.018705
v -0.955441 1.276952 -0.744162
v -1.042591 1.207719 1.892856
v -0.955441 0.108071 1.964216
v -1.144968 -0.026626 4.138762
v 1.144968 -0.026626 4.138762
v -1.052940 0.158772 4.044356
v 1.052940 0.158772 4.044356
v -1.024613 0.158772 -4.070837
v 1.024613 0.158772 -4.070837
v -1.144968 -0.026626 -4.138762
v 1.144968 -0.026626 -4.138762
vt 0.660292 0.051413
vt 0.815237 0.051413
vt 0.660292 0.206359
vt 0.815237 0.206359
vt 0.660292 0.361304
vt 0.815237 0.361304
vt 0.660292 0.516249
vt 0.815237 0.516249
vt 0.660292 0.671195
vt 0.815237 0.671195
vt 0.970183 0.051413
vt 0.970183 0.206359
vt 0.505347 0.051413
vt 0.505347 0.206359
vt 0.582819 0.206359
vt 0.660292 0.283831
vt 0.815237 0.283831
vt 0.892710 0.206359
vt 0.621556 0.206359
vt 0.660292 0.245095
vt 0.815237 0.245095
vt 0.853974 0.206359
vt 0.544083 0.206359
vt 0.660292 0.322568
vt 0.815237 0.322568
vt 0.931446 0.206359
vt 0.602187 0.206359
vt 0.660292 0.264463
vt 0.815237 0.264463
vt 0.873342 0.206359
vt 0.563451 0.206359
vt 0.660292 0.303199
vt 0.815237 0.303199
vt 0.912078 0.206359
vt 0.815237 0.593722
vt 0.892710 0.051413
vt 0.815237 0.293515
vt 0.902394 0.206359
vt 0.815237 0.274147
vt 0.883026 0.206359
vt 0.815237 0.632458
vt 0.853974 0.051413
vt 0.815237 0.554986
vt 0.931446 0.051413
vt 0.815237 0.341936
vt 0.950815 0.206359
vt 0.582819 0.051413
vt 0.660292 0.593722
vt 0.592503 0.206359
vt 0.660292 0.274147
vt 0.544083 0.051413
vt 0.660292 0.554986
vt 0.573135 0.206359
vt 0.660292 0.293515
vt 0.611872 0.206359
vt 0.660292 0.254779
vt 0.621556 0.051413
vt 0.660292 0.632458
vt 0.179643 0.331955
vt 0.325520 0.331955
vt 0.325520 0.477832
vt 0.179643 0.477832
vt 0.325520 0.623709
vt 0.179643 0.623709
vt 0.325520 0.769586
vt 0.179643 0.769586
vt 0.325520 0.915463
vt 0.179643 0.915463
vt 0.471397 0.331955
vt 0.471397 0.477832
vt 0.033766 0.331955
vt 0.033766 0.477832
vn 0.017849 0.037935 0.999121
vn 0.017849 0.037935 0.999121
vn 0.017849 0.037935 0.999121
vn 0.017849 0.037935 0.999121
vn -0.027262 0.996449 -0.079666
vn -0.008319 0.998035 -0.062100
vn 0.001971 0.998692 -0.051092
vn 0.001971 0.998692 -0.051092
vn -0.022112 0.046273 -0.998684
vn -0.022112 0.046273 -0.998684
vn -0.022112 0.046273 -0.998684
vn -0.022112 0.046273 -0.998684
vn -0.000000 -1.000000 0.000000
vn -0.000000 -1.000000 0.000000
vn -0.000000 -1.000000 0.000000
vn -0.000000 -1.000000 0.000000
vn -0.000000 -1.000000 0.000000
vn -0.000000 -1.000000 0.000000
vn -0.000000 -1.000000 0.000000
vn -0.000000 -1.000000 0.000000
vn -0.000000 -1.000000 0.000000
vn -0.000000 -1.000000 0.000000
vn 0.999454 -0.027818 -0.017851
vn 0.999066 -0.022414 0.036945
vn 0.998246 -0.049826 -0.031973
vn -0.992765 -0.119952 0.005477
vn -0.991062 -0.127391 0.039593
vn -0.991981 -0.126068 0.009001
vn -0.016913 0.998089 0.059433
vn -0.016673 0.998515 0.051855
vn 0.006846 0.999604 -0.027310
vn 0.010334 0.999563 -0.027680
vn -0.033218 0.997445 0.063246
vn -0.033218 0.997445 0.063246
vn -0.027094 0.996044 0.084634
vn -0.026950 0.997521 0.064998
vn -0.035848 0.997856 -0.054755
vn -0.035024 0.998053 -0.051617
vn -0.051851 0.993113 -0.105062
vn -0.012842 0.993731 0.111054
vn 0.029984 0.999535 -0.005596
vn 0.030055 0.999516 -0.008057
vn 0.005117 0.999884 0.014355
vn 0.005001 0.999885 0.014348
vn 0.988955 -0.140846 -0.046154
vn 0.991031 -0.133248 -0.010121
vn 0.993439 -0.108096 0.037342
vn 0.985212 -0.148768 -0.085002
vn 0.995238 -0.097105 0.008503
vn 0.999144 -0.041124 -0.004394
vn 0.989901 -0.042381 0.135280
vn 0.997766 -0.066331 0.007880
vn 0.988075 -0.148852 -0.039393
vn 0.999601 -0.026874 0.008722
vn 0.999601 -0.026874 0.008722
vn 0.992787 -0.117083 0.025812
vn -0.995788 -0.091641 0.002998
vn -0.998317 -0.046487 -0.034686
vn -0.985175 -0.145109 0.091505
vn -0.995176 -0.097923 -0.006015
vn -0.998008 -0.053156 0.033980
vn -0.994051 0.027573 0.105367
vn -0.993449 -0.104750 -0.045670
vn -0.995954 -0.089657 0.006066
vn -0.997826 -0.049798 -0.043180
vn -0.998826 -0.047304 -0.010480
vn -0.996581 -0.068600 0.046039
vn -0.997331 -0.063832 0.035443
vn 0.000000 0.453764 0.891122
vn 0.000000 0.453764 0.891122
vn 0.000000 0.453764 0.891122
vn 0.000000 0.453764 0.891122
vn 0.000000 1.000000 -0.000000
vn 0.000000 1.000000 -0.000000
vn 0.000000 1.000000 -0.000000
vn 0.000000 1.000000 -0.000000
vn 0.000000 0.344008 -0.938967
vn 0.000000 0.344008 -0.938967
vn 0.000000 0.344008 -0.938967
vn 0.000000 0.344008 -0.938967
vn 0.000000 -1.000000 0.000000
vn 0.000000 -1.000000 0.000000
vn 0.000000 -1.000000 0.000000
vn 0.000000 -1.000000 0.000000
vn 0.867784 0.496939 -0.001500
vn 0.867784 0.496939 -0.001500
vn 0.867784 0.496939 -0.001500
vn 0.867784 0.496939 -0.001500
vn -0.867784 0.496939 -0.001500
vn -0.867784 0.496939 -0.001500
vn -0.867784 0.496939 -0.001500
vn -0.867784 0.496939 -0.001500
s off
g pCube7
usemtl initialShadingGroup
f 1/1/1 2/2/2 4/4/3 3/3/4
s 1
f 13/24/5 24/45/6 6/6/7 5/5/8
s off
f 5/5/9 6/6/10 8/8/11 7/7/12
f 7/7/13 8/8/14 23/43/15 19/35/16 22/41/17 2/10/18 1/9/19 30/58/20 25/48/21 27/52/22
s 2
f 2/2/23 12/22/24 4/4/25
s 3
f 7/13/26 13/23/27 5/14/28
s 1
f 15/28/29 16/29/30 21/39/31 26/50/32
f 3/3/33 4/4/34 12/21/35 11/20/36
f 17/32/37 18/33/38 14/25/39 13/24/5
f 11/20/36 12/21/35 29/56/40
f 9/16/41 10/17/42 20/37/43 28/54/44
s 2
f 10/18/45 19/36/46 20/38/47
f 14/26/48 23/44/49 24/46/50
f 16/30/51 22/42/52 21/40/53
f 24/46/50 23/44/49 8/11/54 6/12/55
f 12/22/24 22/42/52 16/30/51
f 21/40/53 22/42/52 19/36/46 10/18/45
f 20/38/47 19/36/46 23/44/49 18/34/56
f 18/34/56 23/44/49 14/26/48
f 2/2/23 22/42/52 12/22/24
s 3
f 13/23/27 27/51/57 28/53/58 17/31/59
f 11/19/60 1/1/61 3/3/62
f 29/55/63 30/57/64 1/1/61 11/19/60
f 9/15/65 25/47/66 26/49/67
f 7/13/26 27/51/57 13/23/27
f 28/53/58 27/51/57 25/47/66 9/15/65
f 15/27/68 30/57/64 29/55/63
f 26/49/67 25/47/66 30/57/64 15/27/68
s 1
f 26/50/32 21/39/31 10/17/42 9/16/41
f 28/54/44 20/37/43 18/33/38 17/32/37
f 13/24/5 14/25/39 24/45/6
f 29/56/40 12/21/35 16/29/30 15/28/29
s off
f 31/59/69 32/60/70 34/61/71 33/62/72
f 33/62/73 34/61/74 36/63/75 35/64/76
f 35/64/77 36/63/78 38/65/79 37/66/80
f 37/66/81 38/65/82 32/67/83 31/68/84
f 32/60/85 38/69/86 36/70/87 34/61/88
f 37/71/89 31/59/90 33/62/91 35/72/92
