# This file uses centimeters as units for non-parametric coordinates.

mtllib wheat_field_3.mtl
g default
v -6.276931 -0.026626 4.138762
v -3.986995 -0.026626 4.138762
v -6.184903 0.158772 4.044356
v -4.079022 0.158772 4.044356
v -6.156576 0.158772 -4.070837
v -4.107350 0.158772 -4.070837
v -6.276931 -0.026626 -4.138762
v -3.986995 -0.026626 -4.138762
v -5.997512 0.075050 3.916225
v -4.176522 0.108070 3.955677
v -6.141735 0.887162 3.955677
v -4.127171 0.977350 3.774122
v -5.967752 1.065112 -3.918727
v -4.134050 0.892181 -4.010166
v -6.019637 0.108071 -4.010166
v -4.176522 0.108070 -4.010166
v -6.016459 1.087442 0.143405
v -4.074182 1.204756 0.133120
v -6.121689 1.162611 3.180447
v -4.017653 1.151574 3.282995
v -6.252451 1.022295 -2.622194
v -4.051435 1.085552 -2.536888
v -5.957024 1.260188 1.371098
v -4.057299 1.347783 2.067808
v -6.054487 1.285430 -1.604073
v -3.945216 1.413120 -1.785326
v -4.118576 0.108070 -0.027244
v -3.833429 1.302214 -0.634407
v -4.338265 1.200459 0.677921
v -4.176522 0.108070 1.964216
v -4.154332 0.108070 -2.018705
v -4.227139 0.921737 -3.584222
v -5.943444 0.108071 0.498775
v -6.206991 1.043898 0.864070
v -6.134825 0.108071 -1.800936
v -6.087404 1.256397 -0.628693
v -6.157307 1.312438 2.078674
v -6.126898 0.108071 1.964216
vt 0.141534 0.614741
vt 0.216235 0.614741
vt 0.216235 0.689442
vt 0.141534 0.689442
vt 0.216235 0.764143
vt 0.141534 0.764143
vt 0.216235 0.838845
vt 0.141534 0.838845
vt 0.216235 0.913546
vt 0.141534 0.913546
vt 0.290936 0.614741
vt 0.290936 0.689442
vt 0.066833 0.614741
vt 0.066833 0.689442
vt 0.459825 0.025727
vt 0.532562 0.025727
vt 0.534647 0.084492
vt 0.461534 0.084492
vt 0.486821 0.128566
vt 0.517217 0.135912
vt 0.527058 0.143257
vt 0.480227 0.143257
vt 0.524818 0.202022
vt 0.482718 0.202022
vt 0.511424 0.216713
vt 0.507477 0.231405
vt 0.504941 0.246096
vt 0.504814 0.260787
vt 0.490992 0.260787
vt 0.489536 0.246096
vt 0.492601 0.231405
vt 0.493370 0.216713
vt 0.567445 0.084492
vt 0.010665 0.025727
vt 0.096883 0.084492
vt 0.014305 0.084492
vt 0.493314 0.106529
vt 0.512969 0.106529
vt 0.504695 0.110202
vt 0.492448 0.110202
vt 0.526784 0.099183
vt 0.480913 0.099183
vt 0.493033 0.121220
vt 0.509155 0.121220
vt 0.511566 0.128566
vt 0.489130 0.102856
vt 0.494437 0.113875
vt 0.506074 0.113875
vt 0.507511 0.117548
vt 0.494121 0.117548
vt 0.731253 0.084492
vt 0.737756 0.025727
vt 0.770363 0.084492
vt 0.860375 0.084492
vt 0.836097 0.025727
vt 0.930464 0.084492
vt 0.629396 0.084492
vt 0.634945 0.025727
vt 0.699281 0.084492
vt 0.962042 0.025727
vt 0.962101 0.084492
vt 0.821688 0.084492
vt 0.142620 0.025727
vt 0.203908 0.084492
vt 0.155985 0.084492
vt 0.412348 0.084492
vt 0.356258 0.084492
vt 0.351053 0.025727
vt 0.246209 0.084492
vt 0.269433 0.025727
vt 0.289836 0.084492
vt 0.321617 0.084492
vn 0.000000 0.453764 0.891122
vn 0.000000 0.453764 0.891122
vn 0.000000 0.453764 0.891122
vn 0.000000 0.453764 0.891122
vn 0.000000 1.000000 -0.000000
vn 0.000000 1.000000 -0.000000
vn 0.000000 1.000000 -0.000000
vn 0.000000 1.000000 -0.000000
vn 0.000000 0.344008 -0.938967
vn 0.000000 0.344008 -0.938967
vn 0.000000 0.344008 -0.938967
vn 0.000000 0.344008 -0.938967
vn 0.000000 -1.000000 0.000000
vn 0.000000 -1.000000 0.000000
vn 0.000000 -1.000000 0.000000
vn 0.000000 -1.000000 0.000000
vn 0.867784 0.496940 -0.001500
vn 0.867784 0.496940 -0.001500
vn 0.867784 0.496940 -0.001500
vn 0.867784 0.496940 -0.001500
vn -0.867784 0.496940 -0.001500
vn -0.867784 0.496940 -0.001500
vn -0.867784 0.496940 -0.001500
vn -0.867784 0.496940 -0.001500
vn 0.034125 0.086078 0.995704
vn 0.034125 0.086078 0.995704
vn 0.034125 0.086078 0.995704
vn 0.034125 0.086078 0.995704
vn -0.007351 0.981656 -0.190519
vn 0.047643 0.998471 -0.028018
vn 0.077363 0.996698 0.024642
vn 0.077363 0.996698 0.024642
vn -0.022304 0.053636 -0.998311
vn -0.022304 0.053636 -0.998312
vn -0.022304 0.053636 -0.998311
vn -0.022304 0.053636 -0.998312
vn 0.002180 -0.999995 -0.002135
vn 0.002180 -0.999995 -0.002135
vn 0.002180 -0.999995 -0.002135
vn 0.002180 -0.999995 -0.002135
vn 0.002180 -0.999995 -0.002135
vn 0.002180 -0.999995 -0.002135
vn 0.002180 -0.999995 -0.002135
vn 0.002180 -0.999995 -0.002135
vn 0.002180 -0.999995 -0.002135
vn 0.002180 -0.999995 -0.002135
vn 0.989837 -0.141487 0.014288
vn 0.991957 -0.126576 -0.000802
vn 0.976775 -0.010761 0.213995
vn -0.989926 -0.052388 -0.131541
vn -0.997875 -0.060967 -0.022997
vn -0.974622 0.073054 -0.211600
vn -0.034895 0.987083 -0.156361
vn -0.026590 0.999645 -0.001725
vn -0.054406 0.994425 -0.090324
vn -0.052617 0.993486 -0.101076
vn -0.011718 0.942666 0.333533
vn -0.011718 0.942666 0.333533
vn -0.011698 0.969191 0.246032
vn -0.006844 0.970628 0.240487
vn -0.043196 0.993101 -0.109016
vn -0.043040 0.993615 -0.104290
vn -0.040893 0.964608 -0.260500
vn -0.010242 0.997578 0.068805
vn -0.052774 0.993820 0.097652
vn -0.047804 0.991569 0.120443
vn -0.037157 0.993840 0.104412
vn -0.037186 0.993519 0.107412
vn 0.983843 0.072205 0.163827
vn 0.997404 -0.053166 0.048575
vn 0.981284 -0.191340 -0.021695
vn 0.980151 -0.163002 -0.112850
vn 0.984828 -0.165332 -0.052714
vn 0.999796 0.018729 0.007608
vn 0.989116 -0.085093 -0.120039
vn 0.999156 -0.035739 -0.020245
vn 0.994156 0.082841 0.069224
vn 0.998478 0.047085 0.028708
vn 0.998478 0.047085 0.028708
vn 0.979279 -0.194673 -0.055815
vn -0.998345 -0.028029 0.050222
vn -0.996414 -0.023380 0.081313
vn -0.995581 0.055236 0.075940
vn -0.997269 -0.059439 0.043846
vn -0.997142 -0.066773 0.035359
vn -0.981669 -0.170165 -0.085845
vn -0.999000 -0.043454 -0.010576
vn -0.998582 -0.046402 0.026091
vn -0.997312 -0.057273 0.045708
vn -0.997784 -0.052044 0.041462
vn -0.998009 -0.061941 -0.011866
vn -0.998906 -0.031009 -0.035015
s off
g polySurface2
usemtl initialShadingGroup
f 1/1/1 2/2/2 4/3/3 3/4/4
f 3/4/5 4/3/6 6/5/7 5/6/8
f 5/6/9 6/5/10 8/7/11 7/8/12
f 7/8/13 8/7/14 2/9/15 1/10/16
f 2/2/17 8/11/18 6/12/19 4/3/20
f 7/13/21 1/1/22 3/4/23 5/14/24
f 9/15/25 10/16/26 12/17/27 11/18/28
s 1
f 21/19/29 32/20/30 14/21/31 13/22/32
s off
f 13/22/33 14/21/34 16/23/35 15/24/36
f 15/24/37 16/23/38 31/25/39 27/26/40 30/27/41 10/28/42 9/29/43 38/30/44 33/31/45 35/32/46
s 2
f 10/16/47 20/33/48 12/17/49
s 3
f 15/34/50 21/35/51 13/36/52
s 1
f 23/37/53 24/38/54 29/39/55 34/40/56
f 11/18/57 12/17/58 20/41/59 19/42/60
f 25/43/61 26/44/62 22/45/63 21/19/29
f 19/42/60 20/41/59 37/46/64
f 17/47/65 18/48/66 28/49/67 36/50/68
s 2
f 18/51/69 27/52/70 28/53/71
f 22/54/72 31/55/73 32/56/74
f 24/57/75 30/58/76 29/59/77
f 32/56/74 31/55/73 16/60/78 14/61/79
f 20/33/48 30/58/76 24/57/75
f 29/59/77 30/58/76 27/52/70 18/51/69
f 28/53/71 27/52/70 31/55/73 26/62/80
f 26/62/80 31/55/73 22/54/72
f 10/16/47 30/58/76 20/33/48
s 3
f 21/35/51 35/63/81 36/64/82 25/65/83
f 19/66/84 9/15/85 11/18/86
f 37/67/87 38/68/88 9/15/85 19/66/84
f 17/69/89 33/70/90 34/71/91
f 15/34/50 35/63/81 21/35/51
f 36/64/82 35/63/81 33/70/90 17/69/89
f 23/72/92 38/68/88 37/67/87
f 34/71/91 33/70/90 38/68/88 23/72/92
s 1
f 34/40/56 29/39/55 18/48/66 17/47/65
f 36/50/68 28/49/67 26/44/62 25/43/61
f 21/19/29 22/45/63 32/20/30
f 37/46/64 20/41/59 24/38/54
f 37/46/64 24/38/54 23/37/53
