# This file uses centimeters as units for non-parametric coordinates.

mtllib mill_small_turbine.mtl
g default
v -0.032797 0.038118 -0.021565
v -0.032797 0.038118 0.021615
v -0.032797 0.000723 0.043205
v -0.032797 -0.036672 0.021615
v -0.032797 -0.036672 -0.021565
v -0.032797 0.000723 -0.043155
v 0.032797 0.038118 -0.021565
v 0.032797 0.038118 0.021615
v 0.032797 0.000723 0.043205
v 0.032797 -0.036672 0.021615
v 0.032797 -0.036672 -0.021565
v 0.032797 0.000723 -0.043155
v -0.032797 0.000723 0.000025
v 0.032797 0.000723 0.000025
v -0.012889 -0.177719 0.231616
v 0.012846 -0.177719 0.231616
v -0.012889 -0.156244 0.246654
v 0.012846 -0.156244 0.246654
v -0.012889 0.179157 -0.232348
v 0.012846 0.179157 -0.232348
v -0.012889 0.157681 -0.247385
v 0.012846 0.157681 -0.247385
v -0.001117 0.025218 -0.119519
v 0.011147 0.025543 -0.119983
v -0.001119 0.103370 -0.064858
v 0.011145 0.103695 -0.065322
v -0.013047 0.296290 -0.244969
v -0.000783 0.296615 -0.245433
v -0.013041 0.128226 -0.362516
v -0.000778 0.128551 -0.362980
v -0.001117 0.112369 -0.047895
v 0.011147 0.112935 -0.047895
v -0.001119 0.112419 0.047475
v 0.011145 0.112986 0.047475
v -0.013047 0.370612 0.102198
v -0.000783 0.371178 0.102198
v -0.013041 0.370503 -0.102894
v -0.000778 0.371069 -0.102893
v -0.012889 -0.291664 -0.012730
v 0.012846 -0.291664 -0.012730
v -0.012889 -0.291665 0.013488
v 0.012846 -0.291665 0.013488
v -0.012889 0.293088 0.013488
v 0.012846 0.293088 0.013488
v -0.012889 0.293089 -0.012730
v 0.012846 0.293089 -0.012730
v -0.012889 -0.156864 -0.246219
v 0.012846 -0.156864 -0.246219
v -0.012889 -0.178340 -0.231182
v 0.012846 -0.178340 -0.231182
v -0.012889 0.157060 0.247820
v 0.012846 0.157060 0.247820
v -0.012889 0.178536 0.232783
v 0.012846 0.178536 0.232783
v -0.001117 0.103686 0.064575
v 0.011147 0.104011 0.065039
v -0.001119 0.025592 0.119319
v 0.011145 0.025917 0.119783
v -0.013047 0.128859 0.362206
v -0.000783 0.129184 0.362669
v -0.013041 0.296797 0.244481
v -0.000778 0.297122 0.244945
v -0.013045 -0.025543 0.119983
v -0.000781 -0.025219 0.119519
v -0.013043 -0.103695 0.065322
v -0.000779 -0.103370 0.064858
v -0.001115 -0.296615 0.245433
v 0.011148 -0.296290 0.244969
v -0.001120 -0.128551 0.362980
v 0.011143 -0.128226 0.362515
v -0.013045 -0.112935 0.047895
v -0.000781 -0.112369 0.047895
v -0.013043 -0.112986 -0.047475
v -0.000779 -0.112419 -0.047475
v -0.001115 -0.371178 -0.102198
v 0.011148 -0.370612 -0.102198
v -0.001120 -0.371069 0.102894
v 0.011143 -0.370503 0.102894
v -0.013045 -0.104010 -0.065040
v -0.000781 -0.103685 -0.064576
v -0.013043 -0.025917 -0.119784
v -0.000779 -0.025592 -0.119319
v -0.001115 -0.129184 -0.362670
v 0.011148 -0.128859 -0.362206
v -0.001120 -0.297122 -0.244945
v 0.011143 -0.296797 -0.244481
vt 0.159878 0.599923
vt 0.174053 0.599923
vt 0.174053 0.727820
vt 0.159878 0.727820
vt 0.188229 0.599923
vt 0.188229 0.727820
vt 0.202404 0.599923
vt 0.202404 0.727820
vt 0.216579 0.599923
vt 0.216579 0.727820
vt 0.230755 0.599923
vt 0.230755 0.727820
vt 0.244930 0.599923
vt 0.244930 0.727820
vt 0.175825 0.500730
vt 0.228983 0.500730
vt 0.202404 0.544639
vt 0.149247 0.546765
vt 0.175825 0.592801
vt 0.228983 0.592801
vt 0.255561 0.546765
vt 0.228983 0.826693
vt 0.175825 0.826693
vt 0.202404 0.778531
vt 0.149247 0.780657
vt 0.175825 0.734621
vt 0.228983 0.734621
vt 0.255561 0.780657
vt 0.625381 0.758416
vt 0.649250 0.758416
vt 0.649250 0.782285
vt 0.625381 0.782285
vt 0.649250 0.806154
vt 0.625381 0.806154
vt 0.649250 0.830023
vt 0.625381 0.830023
vt 0.649250 0.853891
vt 0.625381 0.853891
vt 0.673119 0.758416
vt 0.673119 0.782285
vt 0.601512 0.758416
vt 0.601512 0.782285
vt 0.638946 0.870748
vt 0.664551 0.870748
vt 0.664551 0.896353
vt 0.638946 0.896353
vt 0.664551 0.921958
vt 0.638946 0.921958
vt 0.664551 0.947563
vt 0.638946 0.947563
vt 0.664551 0.973168
vt 0.638946 0.973168
vt 0.690156 0.870748
vt 0.690156 0.896353
vt 0.613341 0.870748
vt 0.613341 0.896353
vt 0.638946 0.870748
vt 0.664551 0.870748
vt 0.664551 0.896353
vt 0.638946 0.896353
vt 0.664551 0.921958
vt 0.638946 0.921958
vt 0.664551 0.947563
vt 0.638946 0.947563
vt 0.664551 0.973168
vt 0.638946 0.973168
vt 0.690156 0.870748
vt 0.690156 0.896353
vt 0.613341 0.870748
vt 0.613341 0.896353
vt 0.625381 0.758416
vt 0.649250 0.758416
vt 0.649250 0.782285
vt 0.625381 0.782285
vt 0.649250 0.806154
vt 0.625381 0.806154
vt 0.649250 0.830023
vt 0.625381 0.830023
vt 0.649250 0.853891
vt 0.625381 0.853891
vt 0.673119 0.758416
vt 0.673119 0.782285
vt 0.601512 0.758416
vt 0.601512 0.782285
vt 0.625381 0.758416
vt 0.649250 0.758416
vt 0.649250 0.782285
vt 0.625381 0.782285
vt 0.649250 0.806154
vt 0.625381 0.806154
vt 0.649250 0.830023
vt 0.625381 0.830023
vt 0.649250 0.853891
vt 0.625381 0.853891
vt 0.673119 0.758416
vt 0.673119 0.782285
vt 0.601512 0.758416
vt 0.601512 0.782285
vt 0.638946 0.870748
vt 0.664551 0.870748
vt 0.664551 0.896353
vt 0.638946 0.896353
vt 0.664551 0.921958
vt 0.638946 0.921958
vt 0.664551 0.947563
vt 0.638946 0.947563
vt 0.664551 0.973168
vt 0.638946 0.973168
vt 0.690156 0.870748
vt 0.690156 0.896353
vt 0.613341 0.870748
vt 0.613341 0.896353
vt 0.638946 0.870748
vt 0.664551 0.870748
vt 0.664551 0.896353
vt 0.638946 0.896353
vt 0.664551 0.921958
vt 0.638946 0.921958
vt 0.664551 0.947563
vt 0.638946 0.947563
vt 0.664551 0.973168
vt 0.638946 0.973168
vt 0.690156 0.870748
vt 0.690156 0.896353
vt 0.613341 0.870748
vt 0.613341 0.896353
vt 0.638946 0.870748
vt 0.664551 0.870748
vt 0.664551 0.896353
vt 0.638946 0.896353
vt 0.664551 0.921958
vt 0.638946 0.921958
vt 0.664551 0.947563
vt 0.638946 0.947563
vt 0.664551 0.973168
vt 0.638946 0.973168
vt 0.690156 0.870748
vt 0.690156 0.896353
vt 0.613341 0.870748
vt 0.613341 0.896353
vt 0.638946 0.870748
vt 0.664551 0.870748
vt 0.664551 0.896353
vt 0.638946 0.896353
vt 0.664551 0.921958
vt 0.638946 0.921958
vt 0.664551 0.947563
vt 0.638946 0.947563
vt 0.664551 0.973168
vt 0.638946 0.973168
vt 0.690156 0.870748
vt 0.690156 0.896353
vt 0.613341 0.870748
vt 0.613341 0.896353
vn 0.000000 1.000000 0.000000
vn 0.000000 1.000000 0.000000
vn 0.000000 1.000000 0.000000
vn 0.000000 1.000000 0.000000
vn 0.000000 0.500000 0.866025
vn 0.000000 0.500000 0.866025
vn 0.000000 0.500000 0.866025
vn 0.000000 0.500000 0.866025
vn 0.000000 -0.500000 0.866025
vn 0.000000 -0.500000 0.866025
vn 0.000000 -0.500000 0.866025
vn 0.000000 -0.500000 0.866025
vn 0.000000 -1.000000 0.000000
vn 0.000000 -1.000000 0.000000
vn 0.000000 -1.000000 0.000000
vn 0.000000 -1.000000 0.000000
vn 0.000000 -0.500000 -0.866025
vn 0.000000 -0.500000 -0.866025
vn 0.000000 -0.500000 -0.866025
vn 0.000000 -0.500000 -0.866025
vn 0.000000 0.500000 -0.866025
vn 0.000000 0.500000 -0.866025
vn 0.000000 0.500000 -0.866025
vn 0.000000 0.500000 -0.866025
vn -1.000000 0.000000 0.000000
vn -1.000000 0.000000 0.000000
vn -1.000000 0.000000 0.000000
vn -1.000000 0.000000 0.000000
vn -1.000000 0.000000 0.000000
vn -1.000000 0.000000 0.000000
vn -1.000000 0.000000 0.000000
vn 1.000000 0.000000 0.000000
vn 1.000000 0.000000 0.000000
vn 1.000000 0.000000 0.000000
vn 1.000000 0.000000 0.000000
vn 1.000000 0.000000 0.000000
vn 1.000000 0.000000 0.000000
vn 1.000000 0.000000 0.000000
vn 0.000000 -0.573583 0.819148
vn 0.000000 -0.573583 0.819148
vn 0.000000 -0.573583 0.819148
vn 0.000000 -0.573583 0.819148
vn 0.000000 0.819152 0.573577
vn 0.000000 0.819152 0.573577
vn 0.000000 0.819152 0.573577
vn 0.000000 0.819152 0.573577
vn 0.000000 0.573577 -0.819151
vn 0.000000 0.573577 -0.819151
vn 0.000000 0.573577 -0.819151
vn 0.000000 0.573577 -0.819151
vn 0.000000 -0.819152 -0.573577
vn 0.000000 -0.819152 -0.573577
vn 0.000000 -0.819152 -0.573577
vn 0.000000 -0.819152 -0.573577
vn 1.000000 0.000000 0.000000
vn 1.000000 0.000000 0.000000
vn 1.000000 0.000000 0.000000
vn 1.000000 0.000000 0.000000
vn -1.000000 -0.000000 0.000000
vn -1.000000 -0.000000 0.000000
vn -1.000000 -0.000000 0.000000
vn -1.000000 -0.000000 0.000000
vn 0.046147 -0.572530 0.818584
vn 0.046147 -0.572530 0.818584
vn 0.046147 -0.572530 0.818584
vn 0.046147 -0.572530 0.818584
vn 0.009565 0.682710 0.730627
vn 0.009565 0.682710 0.730627
vn 0.009565 0.682710 0.730627
vn 0.009565 0.682710 0.730627
vn -0.046150 0.572529 -0.818584
vn -0.046150 0.572529 -0.818585
vn -0.046150 0.572529 -0.818585
vn -0.046150 0.572529 -0.818585
vn 0.009629 -0.920481 -0.390669
vn 0.009629 -0.920481 -0.390669
vn 0.009629 -0.920481 -0.390669
vn 0.009629 -0.920481 -0.390669
vn 0.998935 0.026469 -0.037801
vn 0.998935 0.026469 -0.037801
vn 0.998935 0.026469 -0.037801
vn 0.998935 0.026469 -0.037801
vn -0.998935 -0.026469 0.037801
vn -0.998935 -0.026469 0.037801
vn -0.998935 -0.026469 0.037801
vn -0.998935 -0.026469 0.037801
vn 0.046132 -0.998935 0.000532
vn 0.046132 -0.998935 0.000532
vn 0.046132 -0.998935 0.000532
vn 0.046132 -0.998935 0.000532
vn 0.009556 -0.206908 0.978314
vn 0.009556 -0.206908 0.978314
vn 0.009556 -0.206908 0.978314
vn 0.009556 -0.206908 0.978314
vn -0.046142 0.998935 -0.000534
vn -0.046142 0.998935 -0.000534
vn -0.046142 0.998935 -0.000534
vn -0.046142 0.998935 -0.000534
vn 0.009620 -0.207949 -0.978092
vn 0.009620 -0.207949 -0.978092
vn 0.009620 -0.207950 -0.978092
vn 0.009620 -0.207950 -0.978092
vn 0.998935 0.046147 0.000000
vn 0.998935 0.046147 0.000000
vn 0.998935 0.046147 0.000000
vn 0.998935 0.046147 0.000000
vn -0.998935 -0.046147 -0.000000
vn -0.998935 -0.046147 -0.000000
vn -0.998935 -0.046147 -0.000000
vn -0.998935 -0.046147 -0.000000
vn 0.000000 -1.000000 -0.000011
vn 0.000000 -1.000000 -0.000011
vn 0.000000 -1.000000 -0.000011
vn 0.000000 -1.000000 -0.000011
vn 0.000000 0.000000 1.000000
vn 0.000000 0.000000 1.000000
vn 0.000000 0.000000 1.000000
vn 0.000000 0.000000 1.000000
vn 0.000000 1.000000 0.000011
vn 0.000000 1.000000 0.000011
vn 0.000000 1.000000 0.000011
vn 0.000000 1.000000 0.000011
vn 0.000000 0.000000 -1.000000
vn 0.000000 0.000000 -1.000000
vn 0.000000 0.000000 -1.000000
vn 0.000000 0.000000 -1.000000
vn 1.000000 0.000000 0.000000
vn 1.000000 0.000000 0.000000
vn 1.000000 0.000000 0.000000
vn 1.000000 0.000000 0.000000
vn -1.000000 0.000000 0.000000
vn -1.000000 0.000000 0.000000
vn -1.000000 0.000000 0.000000
vn -1.000000 0.000000 0.000000
vn 0.000000 -0.573571 -0.819156
vn 0.000000 -0.573571 -0.819156
vn 0.000000 -0.573571 -0.819156
vn 0.000000 -0.573571 -0.819156
vn 0.000000 -0.819152 0.573576
vn 0.000000 -0.819152 0.573576
vn 0.000000 -0.819152 0.573576
vn 0.000000 -0.819152 0.573576
vn 0.000000 0.573577 0.819151
vn 0.000000 0.573577 0.819151
vn 0.000000 0.573577 0.819151
vn 0.000000 0.573577 0.819151
vn 0.000000 0.819152 -0.573576
vn 0.000000 0.819152 -0.573576
vn 0.000000 0.819152 -0.573576
vn 0.000000 0.819152 -0.573576
vn 1.000000 0.000000 0.000000
vn 1.000000 0.000000 0.000000
vn 1.000000 0.000000 0.000000
vn 1.000000 0.000000 0.000000
vn -1.000000 -0.000000 0.000000
vn -1.000000 -0.000000 0.000000
vn -1.000000 -0.000000 0.000000
vn -1.000000 -0.000000 0.000000
vn 0.046134 -0.573400 -0.817976
vn 0.046134 -0.573400 -0.817976
vn 0.046134 -0.573400 -0.817976
vn 0.046134 -0.573400 -0.817976
vn 0.009558 -0.920065 0.391649
vn 0.009558 -0.920065 0.391649
vn 0.009558 -0.920065 0.391649
vn 0.009558 -0.920065 0.391649
vn -0.046126 0.573403 0.817974
vn -0.046126 0.573402 0.817974
vn -0.046126 0.573402 0.817974
vn -0.046126 0.573402 0.817974
vn 0.009602 0.681932 -0.731353
vn 0.009602 0.681932 -0.731353
vn 0.009602 0.681932 -0.731353
vn 0.009602 0.681932 -0.731353
vn 0.998935 0.026469 0.037801
vn 0.998935 0.026469 0.037801
vn 0.998935 0.026469 0.037801
vn 0.998935 0.026469 0.037801
vn -0.998935 -0.026469 -0.037801
vn -0.998935 -0.026469 -0.037801
vn -0.998935 -0.026469 -0.037801
vn -0.998935 -0.026469 -0.037801
vn -0.046128 0.572529 -0.818586
vn -0.046128 0.572529 -0.818586
vn -0.046128 0.572529 -0.818586
vn -0.046128 0.572529 -0.818586
vn -0.009547 -0.682710 -0.730627
vn -0.009547 -0.682710 -0.730627
vn -0.009547 -0.682710 -0.730627
vn -0.009547 -0.682710 -0.730627
vn 0.046150 -0.572529 0.818585
vn 0.046150 -0.572529 0.818585
vn 0.046150 -0.572529 0.818585
vn 0.046150 -0.572529 0.818585
vn -0.009613 0.920481 0.390669
vn -0.009613 0.920481 0.390669
vn -0.009613 0.920481 0.390669
vn -0.009613 0.920481 0.390669
vn 0.998935 0.026469 -0.037801
vn 0.998935 0.026469 -0.037801
vn 0.998935 0.026469 -0.037801
vn 0.998935 0.026469 -0.037801
vn -0.998935 -0.026469 0.037801
vn -0.998935 -0.026469 0.037801
vn -0.998935 -0.026469 0.037801
vn -0.998935 -0.026469 0.037801
vn -0.046142 0.998935 -0.000531
vn -0.046142 0.998935 -0.000531
vn -0.046142 0.998935 -0.000531
vn -0.046142 0.998935 -0.000531
vn -0.009547 0.206908 -0.978314
vn -0.009547 0.206908 -0.978314
vn -0.009547 0.206908 -0.978314
vn -0.009547 0.206908 -0.978314
vn 0.046142 -0.998935 0.000532
vn 0.046142 -0.998935 0.000532
vn 0.046142 -0.998935 0.000532
vn 0.046142 -0.998935 0.000532
vn -0.009602 0.207950 0.978092
vn -0.009602 0.207950 0.978092
vn -0.009602 0.207950 0.978092
vn -0.009602 0.207950 0.978092
vn 0.998935 0.046147 0.000000
vn 0.998935 0.046147 0.000000
vn 0.998935 0.046147 0.000000
vn 0.998935 0.046147 0.000000
vn -0.998935 -0.046147 -0.000000
vn -0.998935 -0.046147 -0.000000
vn -0.998935 -0.046147 -0.000000
vn -0.998935 -0.046147 -0.000000
vn -0.046141 0.573403 0.817973
vn -0.046141 0.573403 0.817973
vn -0.046141 0.573403 0.817973
vn -0.046141 0.573403 0.817973
vn -0.009565 0.920064 -0.391651
vn -0.009565 0.920064 -0.391651
vn -0.009565 0.920064 -0.391651
vn -0.009565 0.920064 -0.391651
vn 0.046138 -0.573402 -0.817974
vn 0.046138 -0.573402 -0.817974
vn 0.046138 -0.573402 -0.817974
vn 0.046138 -0.573402 -0.817974
vn -0.009593 -0.681931 0.731354
vn -0.009593 -0.681931 0.731354
vn -0.009593 -0.681931 0.731354
vn -0.009593 -0.681931 0.731354
vn 0.998935 0.026469 0.037801
vn 0.998935 0.026469 0.037801
vn 0.998935 0.026469 0.037801
vn 0.998935 0.026469 0.037801
vn -0.998935 -0.026469 -0.037801
vn -0.998935 -0.026469 -0.037801
vn -0.998935 -0.026469 -0.037801
vn -0.998935 -0.026469 -0.037801
s off
g polySurface260
usemtl initialShadingGroup
f 1/1/1 2/2/2 8/3/3 7/4/4
f 2/2/5 3/5/6 9/6/7 8/3/8
f 3/5/9 4/7/10 10/8/11 9/6/12
f 4/7/13 5/9/14 11/10/15 10/8/16
f 5/9/17 6/11/18 12/12/19 11/10/20
f 6/11/21 1/13/22 7/14/23 12/12/24
s 1
f 2/15/25 1/16/26 13/17/27
f 3/18/28 2/15/25 13/17/27
f 4/19/29 3/18/28 13/17/27
f 5/20/30 4/19/29 13/17/27
f 6/21/31 5/20/30 13/17/27
f 1/16/26 6/21/31 13/17/27
s 2
f 7/22/32 8/23/33 14/24/34
f 8/23/33 9/25/35 14/24/34
f 9/25/35 10/26/36 14/24/34
f 10/26/36 11/27/37 14/24/34
f 11/27/37 12/28/38 14/24/34
f 12/28/38 7/22/32 14/24/34
s off
f 15/29/39 16/30/40 18/31/41 17/32/42
f 17/32/43 18/31/44 20/33/45 19/34/46
f 19/34/47 20/33/48 22/35/49 21/36/50
f 21/36/51 22/35/52 16/37/53 15/38/54
f 16/30/55 22/39/56 20/40/57 18/31/58
f 21/41/59 15/29/60 17/32/61 19/42/62
f 23/43/63 24/44/64 26/45/65 25/46/66
f 25/46/67 26/45/68 28/47/69 27/48/70
f 27/48/71 28/47/72 30/49/73 29/50/74
f 29/50/75 30/49/76 24/51/77 23/52/78
f 24/44/79 30/53/80 28/54/81 26/45/82
f 29/55/83 23/43/84 25/46/85 27/56/86
f 31/57/87 32/58/88 34/59/89 33/60/90
f 33/60/91 34/59/92 36/61/93 35/62/94
f 35/62/95 36/61/96 38/63/97 37/64/98
f 37/64/99 38/63/100 32/65/101 31/66/102
f 32/58/103 38/67/104 36/68/105 34/59/106
f 37/69/107 31/57/108 33/60/109 35/70/110
f 39/71/111 40/72/112 42/73/113 41/74/114
f 41/74/115 42/73/116 44/75/117 43/76/118
f 43/76/119 44/75/120 46/77/121 45/78/122
f 45/78/123 46/77/124 40/79/125 39/80/126
f 40/72/127 46/81/128 44/82/129 42/73/130
f 45/83/131 39/71/132 41/74/133 43/84/134
f 47/85/135 48/86/136 50/87/137 49/88/138
f 49/88/139 50/87/140 52/89/141 51/90/142
f 51/90/143 52/89/144 54/91/145 53/92/146
f 53/92/147 54/91/148 48/93/149 47/94/150
f 48/86/151 54/95/152 52/96/153 50/87/154
f 53/97/155 47/85/156 49/88/157 51/98/158
f 55/99/159 56/100/160 58/101/161 57/102/162
f 57/102/163 58/101/164 60/103/165 59/104/166
f 59/104/167 60/103/168 62/105/169 61/106/170
f 61/106/171 62/105/172 56/107/173 55/108/174
f 56/100/175 62/109/176 60/110/177 58/101/178
f 61/111/179 55/99/180 57/102/181 59/112/182
f 63/113/183 64/114/184 66/115/185 65/116/186
f 65/116/187 66/115/188 68/117/189 67/118/190
f 67/118/191 68/117/192 70/119/193 69/120/194
f 69/120/195 70/119/196 64/121/197 63/122/198
f 64/114/199 70/123/200 68/124/201 66/115/202
f 69/125/203 63/113/204 65/116/205 67/126/206
f 71/127/207 72/128/208 74/129/209 73/130/210
f 73/130/211 74/129/212 76/131/213 75/132/214
f 75/132/215 76/131/216 78/133/217 77/134/218
f 77/134/219 78/133/220 72/135/221 71/136/222
f 72/128/223 78/137/224 76/138/225 74/129/226
f 77/139/227 71/127/228 73/130/229 75/140/230
f 79/141/231 80/142/232 82/143/233 81/144/234
f 81/144/235 82/143/236 84/145/237 83/146/238
f 83/146/239 84/145/240 86/147/241 85/148/242
f 85/148/243 86/147/244 80/149/245 79/150/246
f 80/142/247 86/151/248 84/152/249 82/143/250
f 85/153/251 79/141/252 81/144/253 83/154/254
