# This file uses centimeters as units for non-parametric coordinates.

mtllib billet.mtl
g default
v -0.762156 -0.246872 0.321299
v 0.762156 -0.246872 0.321299
v -0.762156 0.246872 0.321299
v 0.762156 0.246872 0.321299
v -0.762156 0.246872 -0.321299
v 0.762156 0.246872 -0.321299
v -0.762156 -0.246872 -0.321299
v 0.762156 -0.246872 -0.321299
vt 0.375000 0.000000
vt 0.625000 0.000000
vt 0.375000 0.250000
vt 0.625000 0.250000
vt 0.375000 0.500000
vt 0.625000 0.500000
vt 0.375000 0.750000
vt 0.625000 0.750000
vt 0.375000 1.000000
vt 0.625000 1.000000
vt 0.875000 0.000000
vt 0.875000 0.250000
vt 0.125000 0.000000
vt 0.125000 0.250000
vn 0.000000 0.000000 1.000000
vn 0.000000 0.000000 1.000000
vn 0.000000 0.000000 1.000000
vn 0.000000 0.000000 1.000000
vn 0.000000 1.000000 0.000000
vn 0.000000 1.000000 0.000000
vn 0.000000 1.000000 0.000000
vn 0.000000 1.000000 0.000000
vn 0.000000 0.000000 -1.000000
vn 0.000000 0.000000 -1.000000
vn 0.000000 0.000000 -1.000000
vn 0.000000 0.000000 -1.000000
vn 0.000000 -1.000000 0.000000
vn 0.000000 -1.000000 0.000000
vn 0.000000 -1.000000 0.000000
vn 0.000000 -1.000000 0.000000
vn 1.000000 0.000000 0.000000
vn 1.000000 0.000000 0.000000
vn 1.000000 0.000000 0.000000
vn 1.000000 0.000000 0.000000
vn -1.000000 0.000000 0.000000
vn -1.000000 0.000000 0.000000
vn -1.000000 0.000000 0.000000
vn -1.000000 0.000000 0.000000
s off
g pCube2
usemtl initialShadingGroup
f 1/1/1 2/2/2 4/4/3 3/3/4
f 3/3/5 4/4/6 6/6/7 5/5/8
f 5/5/9 6/6/10 8/8/11 7/7/12
f 7/7/13 8/8/14 2/10/15 1/9/16
f 2/2/17 8/11/18 6/12/19 4/4/20
f 7/13/21 1/1/22 3/3/23 5/14/24
g default
v -0.810138 -0.242731 1.803619
v 0.810138 -0.242731 1.803619
v -0.810138 0.242731 1.803619
v 0.810138 0.242731 1.803619
v -0.810138 0.242731 -1.803619
v 0.810138 0.242731 -1.803619
v -0.810138 -0.242731 -1.803619
v 0.810138 -0.242731 -1.803619
v -0.730506 0.218872 0.000000
v 0.730506 0.218872 0.000000
v 0.730506 -0.218872 0.000000
v -0.730506 -0.218872 0.000000
v -0.750508 -0.224864 -0.901809
v 0.750508 -0.224864 -0.901809
v 0.750508 0.224864 -0.901809
v -0.750508 0.224864 -0.901809
v -0.750508 0.224864 0.901809
v 0.750508 0.224864 0.901809
v 0.750508 -0.224864 0.901809
v -0.750508 -0.224864 0.901809
vt 0.375000 0.000000
vt 0.625000 0.000000
vt 0.375000 0.250000
vt 0.625000 0.250000
vt 0.375000 0.500000
vt 0.625000 0.500000
vt 0.375000 0.750000
vt 0.625000 0.750000
vt 0.375000 1.000000
vt 0.625000 1.000000
vt 0.875000 0.000000
vt 0.875000 0.250000
vt 0.125000 0.000000
vt 0.125000 0.250000
vt 0.250000 0.250000
vt 0.375000 0.375000
vt 0.625000 0.375000
vt 0.750000 0.250000
vt 0.625000 0.875000
vt 0.750000 0.000000
vt 0.250000 0.000000
vt 0.375000 0.875000
vt 0.187500 0.000000
vt 0.375000 0.812500
vt 0.625000 0.812500
vt 0.812500 0.000000
vt 0.625000 0.437500
vt 0.812500 0.250000
vt 0.187500 0.250000
vt 0.375000 0.437500
vt 0.312500 0.250000
vt 0.375000 0.312500
vt 0.625000 0.312500
vt 0.687500 0.250000
vt 0.625000 0.937500
vt 0.687500 0.000000
vt 0.312500 0.000000
vt 0.375000 0.937500
vn 0.000000 0.000000 1.000000
vn 0.000000 0.000000 1.000000
vn 0.000000 0.000000 1.000000
vn 0.000000 0.000000 1.000000
vn 0.000000 0.000000 -1.000000
vn 0.000000 0.000000 -1.000000
vn 0.000000 0.000000 -1.000000
vn 0.000000 0.000000 -1.000000
vn 0.000000 -0.999804 0.019808
vn 0.000000 -0.999804 0.019808
vn 0.000000 -0.999904 0.013833
vn 0.000000 -0.999904 0.013833
vn 0.998936 0.000000 0.046125
vn 0.998936 0.000000 0.046125
vn 0.997821 0.000000 0.065979
vn 0.997821 0.000000 0.065979
vn 0.000000 0.999904 0.013833
vn 0.000000 0.999904 0.013833
vn 0.000000 0.999804 0.019808
vn 0.000000 0.999804 0.019808
vn -0.997821 0.000000 0.065979
vn -0.998936 0.000000 0.046125
vn -0.998936 0.000000 0.046125
vn -0.997821 0.000000 0.065979
vn 0.000000 0.999804 -0.019808
vn 0.000000 0.999804 -0.019808
vn 0.000000 0.999904 -0.013833
vn 0.000000 0.999904 -0.013833
vn 0.997821 0.000000 -0.065979
vn 0.998936 0.000000 -0.046125
vn 0.998936 0.000000 -0.046125
vn 0.997821 0.000000 -0.065979
vn 0.000000 -0.999904 -0.013833
vn 0.000000 -0.999904 -0.013833
vn 0.000000 -0.999804 -0.019808
vn 0.000000 -0.999804 -0.019808
vn -0.998936 0.000000 -0.046125
vn -0.998936 0.000000 -0.046125
vn -0.997821 0.000000 -0.065979
vn -0.997821 0.000000 -0.065979
vn 0.000000 1.000000 0.000000
vn 0.000000 1.000000 0.000000
vn 1.000000 0.000000 0.000000
vn 1.000000 0.000000 0.000000
vn 0.000000 -1.000000 -0.000000
vn 0.000000 -1.000000 -0.000000
vn -1.000000 0.000000 0.000000
vn -1.000000 0.000000 0.000000
s off
g pCube1
usemtl initialShadingGroup
f 9/15/25 10/16/26 12/18/27 11/17/28
f 13/19/29 14/20/30 16/22/31 15/21/32
s 1
f 15/21/33 16/22/34 22/39/35 21/38/36
s 2
f 23/42/37 22/40/38 16/25/39 14/26/40
s 3
f 24/44/41 23/41/42 14/20/43 13/19/44
s 4
f 15/27/45 21/37/46 24/43/47 13/28/48
s 3
f 11/17/49 12/18/50 26/47/51 25/46/52
s 2
f 10/16/53 27/50/54 26/48/55 12/18/56
s 1
f 28/52/57 27/49/58 10/24/59 9/23/60
s 4
f 25/45/61 28/51/62 9/15/63 11/17/64
s 3
f 17/30/65 18/31/66 23/41/42 24/44/41
s 2
f 18/32/67 19/34/68 22/40/38 23/42/37
s 1
f 22/39/35 19/33/69 20/36/70 21/38/36
s 4
f 21/37/46 20/35/71 17/29/72 24/43/47
s 2
f 19/34/68 18/32/67 26/48/55 27/50/54
s 3
f 26/47/51 18/31/66 17/30/65 25/46/52
s 4
f 25/45/61 17/29/72 20/35/71 28/51/62
s 1
f 20/36/70 19/33/69 27/49/58 28/52/57
